<mxfile host="65bd71144e">
    <diagram id="vDAsaNtxXmFvEKY6ahnv" name="Page-1">
        <mxGraphModel dx="1117" dy="574" grid="1" gridSize="10" guides="1" tooltips="1" connect="1" arrows="1" fold="1" page="1" pageScale="1" pageWidth="850" pageHeight="1100" math="0" shadow="0">
            <root>
                <mxCell id="0"/>
                <mxCell id="1" parent="0"/>
                <mxCell id="jHTtF6pmdJFvDmBwdfPS-23" value="" style="rounded=1;whiteSpace=wrap;html=1;fillColor=#d5e8d4;strokeColor=#82b366;" parent="1" vertex="1">
                    <mxGeometry x="40" y="420" width="620" height="160" as="geometry"/>
                </mxCell>
                <mxCell id="jHTtF6pmdJFvDmBwdfPS-3" style="edgeStyle=orthogonalEdgeStyle;rounded=0;orthogonalLoop=1;jettySize=auto;html=1;exitX=0.5;exitY=1;exitDx=0;exitDy=0;entryX=0.5;entryY=0;entryDx=0;entryDy=0;" parent="1" source="jHTtF6pmdJFvDmBwdfPS-2" edge="1">
                    <mxGeometry relative="1" as="geometry">
                        <mxPoint x="210" y="290" as="targetPoint"/>
                    </mxGeometry>
                </mxCell>
                <mxCell id="jHTtF6pmdJFvDmBwdfPS-22" value="" style="rounded=1;whiteSpace=wrap;html=1;fillColor=#f8cecc;strokeColor=#b85450;" parent="1" vertex="1">
                    <mxGeometry x="40" y="50" width="620" height="360" as="geometry"/>
                </mxCell>
                <mxCell id="jHTtF6pmdJFvDmBwdfPS-27" value="" style="rounded=1;whiteSpace=wrap;html=1;fillColor=#f8cecc;strokeColor=#b85450;" parent="1" vertex="1">
                    <mxGeometry x="65" y="80" width="570" height="150" as="geometry"/>
                </mxCell>
                <mxCell id="jHTtF6pmdJFvDmBwdfPS-26" value="" style="rounded=1;whiteSpace=wrap;html=1;fillColor=#f8cecc;strokeColor=#b85450;" parent="1" vertex="1">
                    <mxGeometry x="65" y="250" width="570" height="130" as="geometry"/>
                </mxCell>
                <mxCell id="jHTtF6pmdJFvDmBwdfPS-28" value="" style="edgeStyle=orthogonalEdgeStyle;rounded=0;orthogonalLoop=1;jettySize=auto;html=1;" parent="1" source="jHTtF6pmdJFvDmBwdfPS-2" target="jHTtF6pmdJFvDmBwdfPS-4" edge="1">
                    <mxGeometry relative="1" as="geometry"/>
                </mxCell>
                <mxCell id="jHTtF6pmdJFvDmBwdfPS-2" value="Login Portal &lt;br&gt;(/login)" style="aspect=fixed;perimeter=ellipsePerimeter;html=1;align=center;shadow=0;dashed=0;fontColor=#4277BB;labelBackgroundColor=#ffffff;fontSize=12;spacingTop=3;image;image=img/lib/ibm/applications/api_developer_portal.svg;" parent="1" vertex="1">
                    <mxGeometry x="90" y="120" width="60" height="60" as="geometry"/>
                </mxCell>
                <mxCell id="jHTtF6pmdJFvDmBwdfPS-7" value="" style="edgeStyle=orthogonalEdgeStyle;rounded=0;orthogonalLoop=1;jettySize=auto;html=1;" parent="1" source="jHTtF6pmdJFvDmBwdfPS-4" target="jHTtF6pmdJFvDmBwdfPS-5" edge="1">
                    <mxGeometry relative="1" as="geometry"/>
                </mxCell>
                <mxCell id="jHTtF6pmdJFvDmBwdfPS-10" style="edgeStyle=orthogonalEdgeStyle;rounded=0;orthogonalLoop=1;jettySize=auto;html=1;exitX=1;exitY=0.5;exitDx=0;exitDy=0;entryX=0.5;entryY=0;entryDx=0;entryDy=0;" parent="1" source="jHTtF6pmdJFvDmBwdfPS-4" target="jHTtF6pmdJFvDmBwdfPS-8" edge="1">
                    <mxGeometry relative="1" as="geometry">
                        <mxPoint x="370" y="320.0344827586207" as="targetPoint"/>
                    </mxGeometry>
                </mxCell>
                <mxCell id="jHTtF6pmdJFvDmBwdfPS-4" value="Auth API" style="aspect=fixed;perimeter=ellipsePerimeter;html=1;align=center;shadow=0;dashed=0;fontColor=#4277BB;labelBackgroundColor=#ffffff;fontSize=12;spacingTop=3;image;image=img/lib/ibm/applications/enterprise_applications.svg;" parent="1" vertex="1">
                    <mxGeometry x="90" y="285" width="60" height="60" as="geometry"/>
                </mxCell>
                <mxCell id="jHTtF6pmdJFvDmBwdfPS-5" value="User Cred DB" style="aspect=fixed;perimeter=ellipsePerimeter;html=1;align=center;shadow=0;dashed=0;fontColor=#4277BB;labelBackgroundColor=#ffffff;fontSize=12;spacingTop=3;image;image=img/lib/ibm/data/data_services.svg;" parent="1" vertex="1">
                    <mxGeometry x="90" y="460" width="60" height="60" as="geometry"/>
                </mxCell>
                <mxCell id="jHTtF6pmdJFvDmBwdfPS-8" value="Redis" style="aspect=fixed;perimeter=ellipsePerimeter;html=1;align=center;shadow=0;dashed=0;fontColor=#4277BB;labelBackgroundColor=#ffffff;fontSize=12;spacingTop=3;image;image=img/lib/ibm/data/caches.svg;" parent="1" vertex="1">
                    <mxGeometry x="180" y="460" width="60" height="60" as="geometry"/>
                </mxCell>
                <mxCell id="jHTtF6pmdJFvDmBwdfPS-29" value="" style="edgeStyle=orthogonalEdgeStyle;rounded=0;orthogonalLoop=1;jettySize=auto;html=1;" parent="1" source="jHTtF6pmdJFvDmBwdfPS-13" target="jHTtF6pmdJFvDmBwdfPS-14" edge="1">
                    <mxGeometry relative="1" as="geometry"/>
                </mxCell>
                <mxCell id="jHTtF6pmdJFvDmBwdfPS-13" value="Demo SPA 1 &lt;br&gt;(/demo1)" style="aspect=fixed;perimeter=ellipsePerimeter;html=1;align=center;shadow=0;dashed=0;fontColor=#4277BB;labelBackgroundColor=#ffffff;fontSize=12;spacingTop=3;image;image=img/lib/ibm/applications/api_developer_portal.svg;" parent="1" vertex="1">
                    <mxGeometry x="320" y="120" width="60" height="60" as="geometry"/>
                </mxCell>
                <mxCell id="jHTtF6pmdJFvDmBwdfPS-16" style="edgeStyle=orthogonalEdgeStyle;rounded=0;orthogonalLoop=1;jettySize=auto;html=1;exitX=0.5;exitY=1;exitDx=0;exitDy=0;entryX=1;entryY=0.5;entryDx=0;entryDy=0;" parent="1" source="jHTtF6pmdJFvDmBwdfPS-14" target="jHTtF6pmdJFvDmBwdfPS-8" edge="1">
                    <mxGeometry relative="1" as="geometry"/>
                </mxCell>
                <mxCell id="jHTtF6pmdJFvDmBwdfPS-14" value="Demo API 1" style="aspect=fixed;perimeter=ellipsePerimeter;html=1;align=center;shadow=0;dashed=0;fontColor=#4277BB;labelBackgroundColor=#ffffff;fontSize=12;spacingTop=3;image;image=img/lib/ibm/applications/enterprise_applications.svg;" parent="1" vertex="1">
                    <mxGeometry x="320" y="285" width="60" height="60" as="geometry"/>
                </mxCell>
                <mxCell id="jHTtF6pmdJFvDmBwdfPS-30" value="" style="edgeStyle=orthogonalEdgeStyle;rounded=0;orthogonalLoop=1;jettySize=auto;html=1;" parent="1" source="jHTtF6pmdJFvDmBwdfPS-19" target="jHTtF6pmdJFvDmBwdfPS-20" edge="1">
                    <mxGeometry relative="1" as="geometry"/>
                </mxCell>
                <mxCell id="jHTtF6pmdJFvDmBwdfPS-42" value="" style="edgeStyle=orthogonalEdgeStyle;rounded=0;orthogonalLoop=1;jettySize=auto;html=1;" parent="1" source="jHTtF6pmdJFvDmBwdfPS-19" target="jHTtF6pmdJFvDmBwdfPS-20" edge="1">
                    <mxGeometry relative="1" as="geometry"/>
                </mxCell>
                <mxCell id="jHTtF6pmdJFvDmBwdfPS-19" value="Demo SPA 2&lt;br&gt;&amp;nbsp;(/demo2)" style="aspect=fixed;perimeter=ellipsePerimeter;html=1;align=center;shadow=0;dashed=0;fontColor=#4277BB;labelBackgroundColor=#ffffff;fontSize=12;spacingTop=3;image;image=img/lib/ibm/applications/api_developer_portal.svg;" parent="1" vertex="1">
                    <mxGeometry x="550" y="120" width="60" height="60" as="geometry"/>
                </mxCell>
                <mxCell id="jHTtF6pmdJFvDmBwdfPS-21" style="edgeStyle=orthogonalEdgeStyle;rounded=0;orthogonalLoop=1;jettySize=auto;html=1;exitX=0.5;exitY=1;exitDx=0;exitDy=0;entryX=1;entryY=0.5;entryDx=0;entryDy=0;" parent="1" source="jHTtF6pmdJFvDmBwdfPS-20" target="jHTtF6pmdJFvDmBwdfPS-8" edge="1">
                    <mxGeometry relative="1" as="geometry"/>
                </mxCell>
                <mxCell id="jHTtF6pmdJFvDmBwdfPS-20" value="Demo API 2" style="aspect=fixed;perimeter=ellipsePerimeter;html=1;align=center;shadow=0;dashed=0;fontColor=#4277BB;labelBackgroundColor=#ffffff;fontSize=12;spacingTop=3;image;image=img/lib/ibm/applications/enterprise_applications.svg;" parent="1" vertex="1">
                    <mxGeometry x="550" y="285" width="60" height="60" as="geometry"/>
                </mxCell>
                <mxCell id="jHTtF6pmdJFvDmBwdfPS-24" value="Public Access" style="text;html=1;align=center;verticalAlign=middle;resizable=0;points=[];autosize=1;strokeColor=none;fillColor=none;" parent="1" vertex="1">
                    <mxGeometry x="530" y="50" width="100" height="30" as="geometry"/>
                </mxCell>
                <mxCell id="jHTtF6pmdJFvDmBwdfPS-25" value="Private Network&amp;nbsp;" style="text;html=1;strokeColor=none;fillColor=none;align=center;verticalAlign=middle;whiteSpace=wrap;rounded=0;" parent="1" vertex="1">
                    <mxGeometry x="535" y="540" width="100" height="30" as="geometry"/>
                </mxCell>
            </root>
        </mxGraphModel>
    </diagram>
</mxfile>